<svg width="72" height="72" viewBox="0 0 72 72" fill="none" xmlns="http://www.w3.org/2000/svg">
<path d="M67.8923 59.6764C67.8923 52.8724 62.2648 46.6091 54.0259 47.4537L46.3147 39.0837L36.1742 49.2789L43.4894 57.2183C42.1804 63.6774 46.6538 71.9999 55.5681 71.9999C55.5681 71.9999 69.1041 71.9999 72 71.9999C67.8923 71.9999 67.8923 59.6764 67.8923 59.6764ZM55.5681 68.4057C53.321 68.4057 51.2704 67.5518 49.721 66.1521C52.5686 65.2722 55.666 62.9718 55.8172 58.0067C56.9476 57.5978 60.3597 57.8418 64.224 58.5539C64.2715 58.9218 64.2434 64.833 65.2535 68.4057H55.5681ZM1.86259 12.0362C-0.752453 9.42183 -0.594773 5.02695 2.21323 2.22039C4.57195 -0.138328 9.02515 -1.14201 12.0283 1.86903L43.8436 36.4017L33.7687 46.6682L1.86259 12.0362ZM5.78443 51.5137L0.670267 71.9423L20.9707 66.8231L34.7558 52.7147L20.1232 36.8373L5.78443 51.5137ZM9.90859 65.9274L6.68371 62.7025L7.69747 58.6511L13.9737 64.9108L9.90859 65.9274ZM70.277 16.3598C71.6803 14.9558 71.6803 12.6798 70.277 11.2773L60.1106 1.11015C58.6785 -0.321928 56.4033 -0.265048 55.0274 1.11015L34.9236 21.6878L49.5576 37.5659L70.277 16.3598ZM57.5661 3.65175C57.569 3.65175 57.569 3.65175 57.569 3.65175L67.7354 13.8182L60.1106 21.4437L49.9413 11.2766L57.5661 3.65175Z" fill="#EB9B52"/>
</svg>
