<svg width="64" height="72" viewBox="0 0 64 72" fill="none" xmlns="http://www.w3.org/2000/svg">
<path d="M63.278 50.976C63.2 51.288 63.2 51.6 63.122 51.912C63.122 52.068 63.044 52.146 63.044 52.302C62.966 52.458 62.966 52.536 62.888 52.692C62.732 53.004 62.654 53.316 62.42 53.55C60.47 56.904 56.102 58.074 52.748 56.046C51.734 55.422 50.876 54.564 50.33 53.628C49.16 51.678 47.678 49.962 45.884 48.558C44.792 47.7 43.622 46.842 42.374 46.14C41.126 45.438 39.878 44.814 38.552 44.268C37.85 44.034 37.148 43.8 36.446 43.566C36.29 44.268 36.134 44.97 35.978 45.672C35.744 47.076 35.666 48.48 35.666 49.884C35.666 51.288 35.744 52.692 35.978 54.174C36.29 56.436 37.07 58.62 38.162 60.57C38.708 61.584 39.02 62.676 39.02 63.924C39.098 67.824 35.9 71.022 32 71.022C28.1 71.022 24.902 67.824 24.98 63.924C24.98 62.754 25.292 61.584 25.838 60.57C26.93 58.542 27.71 56.436 28.022 54.174C28.256 52.77 28.334 51.366 28.334 49.884C28.334 48.402 28.256 47.076 28.022 45.672C27.944 44.97 27.788 44.268 27.554 43.566C26.852 43.722 26.15 43.956 25.526 44.268C24.2 44.814 22.952 45.438 21.704 46.14C20.456 46.842 19.286 47.622 18.194 48.558C16.4 49.962 14.918 51.756 13.748 53.706C13.124 54.642 12.344 55.5 11.33 56.124C7.97601 58.074 3.60801 56.982 1.65801 53.628C-0.291992 50.274 0.878007 45.906 4.31001 43.956C5.40201 43.332 6.49401 43.098 7.58601 43.02C9.84801 42.942 12.11 42.552 14.216 41.694C15.542 41.148 16.79 40.524 18.038 39.822C19.286 39.12 20.456 38.34 21.548 37.404C22.094 36.936 22.64 36.468 23.186 36C22.718 35.454 22.172 34.986 21.548 34.518C20.456 33.66 19.286 32.802 18.038 32.1C16.79 31.398 15.542 30.774 14.216 30.228C12.11 29.37 9.84801 28.98 7.58601 28.902C6.49401 28.902 5.32401 28.59 4.31001 27.966C1.34601 26.25 0.020007 22.662 1.11201 19.542C1.26801 19.152 1.42401 18.684 1.65801 18.294C1.73601 18.138 1.81401 17.982 1.89201 17.904C3.92001 14.862 8.13201 13.848 11.33 15.72C12.344 16.344 13.202 17.202 13.748 18.138C14.918 20.088 16.4 21.804 18.194 23.286C19.286 24.144 20.456 25.002 21.704 25.704C22.952 26.406 24.2 27.03 25.526 27.576C26.228 27.81 26.93 28.044 27.554 28.278C27.71 27.576 27.866 26.874 28.022 26.172C28.256 24.768 28.334 23.364 28.334 21.882C28.334 20.4 28.256 19.074 28.022 17.592C27.71 15.33 26.93 13.146 25.838 11.196C25.292 10.182 24.98 9.09002 24.98 7.92002C24.902 4.02002 28.1 0.822021 32 0.822021C35.9 0.822021 39.098 4.02002 39.02 7.92002C39.02 9.09002 38.708 10.26 38.162 11.196C37.07 13.224 36.29 15.33 35.978 17.592C35.744 18.996 35.666 20.4 35.666 21.882C35.666 23.286 35.744 24.69 35.978 26.172C36.056 26.874 36.212 27.576 36.446 28.356C37.148 28.2 37.85 27.966 38.552 27.654C39.878 27.108 41.126 26.484 42.374 25.782C43.622 25.08 44.792 24.222 45.884 23.364C47.678 21.96 49.16 20.244 50.33 18.294C50.876 17.358 51.734 16.5 52.748 15.876C56.102 13.926 60.47 15.018 62.42 18.372C64.37 21.726 63.2 26.094 59.768 28.044C58.754 28.668 57.584 28.902 56.492 28.98C54.23 29.058 51.968 29.448 49.862 30.306C48.536 30.852 47.288 31.476 46.04 32.178C44.792 32.88 43.622 33.66 42.53 34.596C41.984 35.064 41.438 35.532 40.892 36.078C41.438 36.624 41.906 37.092 42.53 37.56C43.622 38.418 44.792 39.276 46.04 39.978C47.288 40.68 48.536 41.304 49.862 41.85C51.968 42.708 54.23 43.098 56.492 43.176C57.662 43.176 58.754 43.488 59.768 44.112C62.342 45.36 63.668 48.246 63.278 50.976Z" fill="#F15F5F"/>
</svg>
