<svg width="66" height="72" viewBox="0 0 66 72" fill="none" xmlns="http://www.w3.org/2000/svg">
<path d="M1.265 24.56L31.515 43.81C31.9581 44.0943 32.4735 44.2454 33 44.2454C33.5265 44.2454 34.0419 44.0943 34.485 43.81L64.735 24.56C65.1209 24.3107 65.4383 23.9687 65.658 23.5651C65.8778 23.1616 65.9929 22.7095 65.9929 22.25C65.9929 21.7905 65.8778 21.3384 65.658 20.9349C65.4383 20.5313 65.1209 20.1893 64.735 19.94L34.485 0.689999C34.0419 0.405703 33.5265 0.254578 33 0.254578C32.4735 0.254578 31.9581 0.405703 31.515 0.689999L1.265 19.94C0.879043 20.1893 0.561704 20.5313 0.34197 20.9349C0.122236 21.3384 0.0071106 21.7905 0.0071106 22.25C0.0071106 22.7095 0.122236 23.1616 0.34197 23.5651C0.561704 23.9687 0.879043 24.3107 1.265 24.56Z" fill="#F15F5F"/>
<path d="M61.765 33.69L33 51.9775L4.23499 33.69C3.62336 33.3411 2.90118 33.2401 2.2173 33.4078C1.53342 33.5756 0.939936 33.9993 0.559159 34.5916C0.178382 35.1839 0.0393254 35.8997 0.170645 36.5915C0.301964 37.2833 0.693654 37.8984 1.26499 38.31L31.515 57.56C31.9581 57.8443 32.4735 57.9954 33 57.9954C33.5265 57.9954 34.0419 57.8443 34.485 57.56L64.735 38.31C65.3063 37.8984 65.698 37.2833 65.8294 36.5915C65.9607 35.8997 65.8216 35.1839 65.4408 34.5916C65.0601 33.9993 64.4666 33.5756 63.7827 33.4078C63.0988 33.2401 62.3766 33.3411 61.765 33.69Z" fill="#F15F5F"/>
<path d="M61.765 47.44L33 65.7275L4.23499 47.44C3.62336 47.0911 2.90118 46.9901 2.2173 47.1578C1.53342 47.3256 0.939936 47.7493 0.559159 48.3416C0.178382 48.9339 0.0393254 49.6497 0.170645 50.3415C0.301964 51.0333 0.693654 51.6484 1.26499 52.06L31.515 71.31C31.9581 71.5943 32.4735 71.7454 33 71.7454C33.5265 71.7454 34.0419 71.5943 34.485 71.31L64.735 52.06C65.3063 51.6484 65.698 51.0333 65.8294 50.3415C65.9607 49.6497 65.8216 48.9339 65.4408 48.3416C65.0601 47.7493 64.4666 47.3256 63.7827 47.1578C63.0988 46.9901 62.3766 47.0911 61.765 47.44Z" fill="#F15F5F"/>
</svg>
